<?xml version="1.0" encoding="utf-8"?>
<!-- Generator: Adobe Illustrator 27.0.0, SVG Export Plug-In . SVG Version: 6.00 Build 0)  -->
<svg version="1.1" id="Ñëîé_1" xmlns="http://www.w3.org/2000/svg" xmlns:xlink="http://www.w3.org/1999/xlink" x="0px" y="0px"
	 viewBox="0 0 512 512" style="enable-background:new 0 0 512 512;" xml:space="preserve">
<style type="text/css">
	.st0{fill:#EC1B24;}
</style>
<g id="XMLID_17_">
	<path id="XMLID_19_" class="st0" d="M246.68,205.83h-16.21c0,0-1.99,1.14-1.99,4.12c0,3.55,1.99,4.27,1.99,4.27h14.36
		c20.76,0,33.98,13.93,33.98,41.38c0,29.43-12.94,42.23-35.83,42.23h-9.38c-1.28,0-2.56-1.56-2.56-2.56c0-5.55,0-40.1,0-42.94
		c0-14.22-9.81-22.04-25.45-22.04c-10.66,0-18.2,4.69-22.46,12.94c0-2.7,0-7.54,0-8.96c0-1.42-0.85-2.13-1.99-2.13
		c-1.14,0-26.73,0-26.73,0s-1.85,1.42-1.85,4.27c0,2.99,1.56,4.12,1.56,4.12s4.12,0,6.11,0c1.42,0,3.27,1.56,3.27,3.55
		c0,1.56,0,51.04,0,51.04c0,1.14-1.42,2.42-2.56,2.42h-5.83l-2.56,7.39c17.35,0,38.1,0,38.1,0s1.28-1.14,1.28-3.84
		c0-2.56-1.28-3.55-1.28-3.55h-4.27c-1.28,0-2.27-1-2.27-2.27v-39.81c3.7-10.24,10.95-16.21,17.06-16.21
		c5.69,0,9.24,4.27,9.24,10.66c0,3.27,0,38.82,0,44.79c0,1.56-1.14,2.84-2.27,2.84h-5.55c0,0-1.42,1-1.42,3.55
		c0,2.7,1.42,3.84,1.42,3.84h44.93c44.65,0,56.16-26.87,56.16-49.48C303.69,219.62,278.81,205.83,246.68,205.83"/>
	<path id="XMLID_25_" class="st0" d="M146.3,297.68c-4.83-0.43-5.55-3.27-5.55-6.54v-39.1c0-5.69-2.13-12.23-6.82-16.35
		c-6.11-4.98-14.79-6.4-22.32-6.4c-9.95,0-17.63,1.14-25.59,3.84c-0.85,0.43-1.14,1.14-1.14,2.42c0,3.98,0,6.26,0,10.81
		c0,0.85,0.57,1.42,1.28,1.42c0,0,3.7,0,4.12,0c0.85,0,1.85-0.43,2.42-1.28c2.42-3.13,5.12-5.69,7.54-6.97
		c2.13-1,5.55-2.42,8.96-2.42c8.1,0,11.52,5.97,11.52,12.94v10.81c-30.71-1.85-43.22,7.25-43.22,21.61
		c0,16.64,11.37,23.6,22.61,23.6c10.09,0,17.77-3.84,21.9-9.81c0.85,5.12,3.98,8.67,7.96,8.67c2.13,0,8.25,0,16.07,0l2.7-7.39
		L146.3,297.68L146.3,297.68z M120.71,286.87c-3.13,4.12-8.1,7.54-13.65,7.54c-6.97,0-10.95-3.41-10.95-11.23
		c0-9.24,4.27-14.08,24.6-14.08V286.87"/>
	<path id="XMLID_26_" class="st0" d="M353.03,297.68h-8.39c-1.28,0-2.13-0.71-2.13-1.99c0,0,0-59.15,0-60.71
		c0-1.85-0.57-2.84-2.7-2.84c-2.13,0-25.88,0-25.88,0s-1.85,1.56-1.85,4.12c0,2.42,1.85,4.12,1.85,4.12s6.68,0,7.25,0
		c0.43,0,0.85,0.28,0.85,1c0,0.71,0,54.03,0,54.03c0,1.14-1,2.13-1.99,2.13h-8.25c0,0-1.56,1-1.56,3.55c0,2.42,1.56,3.84,1.56,3.84
		h41.23c0,0,1.28-1.42,1.28-3.84C354.31,298.82,353.03,297.68,353.03,297.68"/>
	<path id="XMLID_27_" class="st0" d="M33.55,241.66c-14.22-4.83-17.06-9.1-17.06-14.79c0-6.26,5.83-12.65,18.2-12.65
		c4.27,0,8.67,1.42,13.08,4.12c2.56,1.56,5.4,4.27,8.39,9.67c0.28,0.57,1,0.85,1.42,0.85c1.14,0,4.41,0,4.41,0
		c0.57,0,0.85-0.43,0.85-1.14c0-3.13,0-11.66,0-16.92c0-0.85-0.57-1.42-1.42-1.99c-8.39-2.7-16.78-3.98-27.73-3.98
		c-20.33,0-33.84,11.52-33.84,29.15c0,17.35,13.22,24.6,30.28,29.86c10.95,3.27,23.89,7.82,23.89,18.48
		c0,6.4-5.97,13.79-17.63,13.79c-8.96,0-14.79-3.27-18.2-6.82c-3.55-3.55-6.82-6.97-9.95-13.51c-0.28-0.71-0.85-1.42-1.56-1.42
		c-1.85,0-5.12-0.14-5.12-0.14c-0.71,0.14-1.28,0.57-1.28,1.56c0,4.12,0,15.07,0,19.76c0,0.71,0.43,1.99,1.14,2.42
		c10.24,5.83,23.46,7.96,34.41,7.96c19.62-0.14,34.55-13.08,34.55-33.84C70.37,250.05,49.9,247.35,33.55,241.66"/>
	<path id="XMLID_28_" class="st0" d="M394.26,259.01c-14.79-3.55-17.92-6.26-17.92-11.37c0-4.41,3.84-9.24,11.66-9.24
		c7.68,0,14.79,4.55,18.2,9.81c0.43,0.71,1,1,1.99,1c1.28,0,2.99,0,3.7,0s1-0.43,1-0.85c0-0.43,0-9.1,0-12.94
		c0-0.85-0.43-1.85-1.42-2.13c-5.69-1.56-14.22-2.84-23.6-2.84c-12.65,0-26.16,7.25-26.16,22.61c0,13.37,10.66,20.62,19.91,23.03
		c15.64,4.27,20.33,6.54,20.33,13.22c0,5.83-4.55,9.38-12.51,9.38c-7.96,0-15.36-5.83-19.76-16.35c-0.71-1-1.14-1.28-1.99-1.28
		c-2.13-0.14-4.27,0-4.83,0c-0.71,0-1.28,0.28-1.28,1.28c0,3.7,0,14.22,0,15.21c0,1.14,1.56,2.42,1.56,2.42s4.41,2.84,9.53,4.55
		c4.27,1.28,9.53,2.56,16.78,2.56c18.48,0,27.3-11.37,27.3-24.88C416.59,270.24,409.76,262.7,394.26,259.01"/>
	<path id="XMLID_29_" class="st0" d="M323.74,221.9h18.48c1,0,1.85-0.43,2.13-1.28l4.27-13.37c0.28-1-0.43-1.56-1.42-1.56h-19.34
		c-1,0-1.56,0.57-1.85,1.42l-3.55,12.09C321.75,220.76,322.46,221.9,323.74,221.9"/>
	<path id="XMLID_30_" class="st0" d="M508.15,297.82c-4.41,0-7.68-1.42-9.67-4.27c-0.85-1.28-24.03-36.54-24.6-37.54
		c5.97-7.96,8.96-11.09,14.08-13.79c3.41-1.85,9.81-3.13,14.5-3.13c0,0,1-0.85,1-3.41c0-2.7-1-3.7-1-3.7l-23.32,0.14
		c-0.85,0-1.99,0.57-2.84,1.85c-0.43,0.71-18.63,26.87-23.6,33.84c0-25.31,0-58.86,0-59.43c0-1.42-0.85-2.56-2.56-2.56
		c-1.85,0-29.01-0.14-29.01-0.14s-1.42,1.14-1.42,3.55c0,2.56,1.42,3.84,1.42,3.84s8.25,0,9.38,0c1.14,0,1.56,0.57,1.56,1.85
		c0,1.14,0,81.04,0,81.04c0,1.14-0.57,1.85-1.28,1.85h-8.96c0,0-1.42,1.14-1.42,3.55c0,2.42,1.42,3.84,1.42,3.84h38.67
		c0,0,1.14-1.56,1.14-3.84s-1.14-3.55-1.14-3.55h-6.26c-0.85,0-1.56-0.71-1.56-1.56c0,0,0-7.82,0-18.77
		c1.85-1.99,5.12-5.4,5.55-5.83c1.14-1.14,2.56-0.71,3.13,0.28c0.85,1.14,15.5,23.89,15.78,24.46c0.71,1,0.28,1.56-0.43,1.56h-4.55
		c0,0-1.14,1.85-1.14,3.55c0,1.99,1,3.7,1,3.7h38.67c0,0,1.14-1.42,1.14-3.55s-1.42-3.7-1.42-3.7S509.43,297.82,508.15,297.82"/>
</g>
</svg>
